<svg width="245" height="152" viewBox="0 0 245 152" fill="none" xmlns="http://www.w3.org/2000/svg">
<g filter="url(#filter0_d)">
<path d="M9.18896 21.5612C9.18896 12.72 16.3562 5.55273 25.1975 5.55273H219.968C228.809 5.55273 235.976 12.72 235.976 21.5612V122.948C235.976 131.79 228.809 138.957 219.968 138.957H25.1975C16.3562 138.957 9.18896 131.79 9.18896 122.948V21.5612Z" fill="#011655"/>
</g>
<g filter="url(#filter1_d)">
<path fill-rule="evenodd" clip-rule="evenodd" d="M219.968 6.88678H25.1975C17.093 6.88678 10.523 13.4568 10.523 21.5612V122.948C10.523 131.053 17.093 137.623 25.1975 137.623H219.968C228.072 137.623 234.642 131.053 234.642 122.948V21.5612C234.642 13.4568 228.072 6.88678 219.968 6.88678ZM25.1975 5.55273C16.3562 5.55273 9.18896 12.72 9.18896 21.5612V122.948C9.18896 131.79 16.3562 138.957 25.1975 138.957H219.968C228.809 138.957 235.976 131.79 235.976 122.948V21.5612C235.976 12.72 228.809 5.55273 219.968 5.55273H25.1975Z" fill="#EDEAEE"/>
</g>
<path d="M139.189 101.702H107.125V44.0771H139.189V101.702Z" fill="#FF5F00"/>
<path d="M109.18 72.8849C109.18 61.1954 114.653 50.7827 123.176 44.0724C116.943 39.1655 109.077 36.2367 100.528 36.2367C80.2902 36.2367 63.8848 52.6444 63.8848 72.8849C63.8848 93.1255 80.2902 109.533 100.528 109.533C109.077 109.533 116.943 106.604 123.176 101.697C114.653 94.9871 109.18 84.5744 109.18 72.8849Z" fill="#EB001B"/>
<path d="M182.434 72.8849C182.434 93.1255 166.029 109.533 145.791 109.533C137.242 109.533 129.376 106.604 123.141 101.697C131.666 94.9871 137.139 84.5744 137.139 72.8849C137.139 61.1954 131.666 50.7827 123.141 44.0724C129.376 39.1655 137.242 36.2367 145.791 36.2367C166.029 36.2367 182.434 52.6444 182.434 72.8849Z" fill="#F79E1B"/>
<path d="M91.4589 73.1157C91.4589 71.5149 92.5079 70.1998 94.2221 70.1998C95.86 70.1998 96.9657 71.4582 96.9657 73.1157C96.9657 74.7732 95.86 76.0316 94.2221 76.0316C92.5079 76.0316 91.4589 74.7165 91.4589 73.1157ZM98.8326 73.1157V68.562H96.8523V69.6677C96.2242 68.8477 95.2712 68.333 93.9757 68.333C91.4219 68.333 89.4198 70.335 89.4198 73.1157C89.4198 75.8985 91.4219 77.8984 93.9757 77.8984C95.2712 77.8984 96.2242 77.3837 96.8523 76.5637V77.6694H98.8326V73.1157ZM165.752 73.1157C165.752 71.5149 166.801 70.1998 168.515 70.1998C170.155 70.1998 171.258 71.4582 171.258 73.1157C171.258 74.7732 170.155 76.0316 168.515 76.0316C166.801 76.0316 165.752 74.7165 165.752 73.1157ZM173.127 73.1157V64.9046H171.145V69.6677C170.517 68.8477 169.564 68.333 168.268 68.333C165.714 68.333 163.712 70.335 163.712 73.1157C163.712 75.8985 165.714 77.8984 168.268 77.8984C169.564 77.8984 170.517 77.3837 171.145 76.5637V77.6694H173.127V73.1157ZM123.414 70.1061C124.689 70.1061 125.509 70.9064 125.719 72.3153H120.993C121.204 71.0002 122.003 70.1061 123.414 70.1061ZM123.453 68.333C120.783 68.333 118.917 70.2762 118.917 73.1157C118.917 76.012 120.86 77.8984 123.586 77.8984C124.958 77.8984 126.214 77.556 127.32 76.6226L126.349 75.1549C125.586 75.7633 124.613 76.1079 123.699 76.1079C122.423 76.1079 121.261 75.5169 120.975 73.8768H127.738C127.758 73.6304 127.778 73.3818 127.778 73.1157C127.758 70.2762 126.005 68.333 123.453 68.333ZM147.364 73.1157C147.364 71.5149 148.413 70.1998 150.128 70.1998C151.765 70.1998 152.871 71.4582 152.871 73.1157C152.871 74.7732 151.765 76.0316 150.128 76.0316C148.413 76.0316 147.364 74.7165 147.364 73.1157ZM154.738 73.1157V68.562H152.758V69.6677C152.127 68.8477 151.177 68.333 149.881 68.333C147.327 68.333 145.325 70.335 145.325 73.1157C145.325 75.8985 147.327 77.8984 149.881 77.8984C151.177 77.8984 152.127 77.3837 152.758 76.5637V77.6694H154.738V73.1157ZM136.181 73.1157C136.181 75.8789 138.104 77.8984 141.04 77.8984C142.411 77.8984 143.325 77.5931 144.315 76.8123L143.365 75.2116C142.621 75.7459 141.84 76.0316 140.981 76.0316C139.4 76.012 138.237 74.8692 138.237 73.1157C138.237 71.3623 139.4 70.2195 140.981 70.1998C141.84 70.1998 142.621 70.4855 143.365 71.0199L144.315 69.4191C143.325 68.6383 142.411 68.333 141.04 68.333C138.104 68.333 136.181 70.3525 136.181 73.1157ZM161.713 68.333C160.57 68.333 159.826 68.8673 159.311 69.6677V68.562H157.349V77.6694H159.331V72.5639C159.331 71.0569 159.979 70.2195 161.274 70.2195C161.675 70.2195 162.094 70.2762 162.513 70.4485L163.124 68.5816C162.685 68.4093 162.114 68.333 161.713 68.333ZM108.627 69.286C107.674 68.6579 106.361 68.333 104.913 68.333C102.606 68.333 101.12 69.4387 101.12 71.2488C101.12 72.734 102.226 73.65 104.263 73.9357L105.199 74.0688C106.285 74.2214 106.797 74.5071 106.797 75.0218C106.797 75.7263 106.073 76.1275 104.721 76.1275C103.349 76.1275 102.359 75.6892 101.692 75.1745L100.758 76.7164C101.844 77.5168 103.216 77.8984 104.701 77.8984C107.332 77.8984 108.856 76.6597 108.856 74.9259C108.856 73.3251 107.657 72.4876 105.674 72.2019L104.741 72.0667C103.884 71.9533 103.197 71.7832 103.197 71.1725C103.197 70.5052 103.844 70.1061 104.93 70.1061C106.093 70.1061 107.218 70.5444 107.77 70.8868L108.627 69.286ZM134.179 68.333C133.036 68.333 132.292 68.8673 131.78 69.6677V68.562H129.817V77.6694H131.797V72.5639C131.797 71.0569 132.445 70.2195 133.74 70.2195C134.141 70.2195 134.56 70.2762 134.979 70.4485L135.59 68.5816C135.151 68.4093 134.58 68.333 134.179 68.333ZM117.279 68.562H114.04V65.7988H112.038V68.562H110.191V70.3721H112.038V74.5268C112.038 76.6401 112.858 77.8984 115.2 77.8984C116.06 77.8984 117.05 77.6324 117.678 77.194L117.106 75.4973C116.515 75.8397 115.868 76.012 115.353 76.012C114.363 76.012 114.04 75.4013 114.04 74.4875V70.3721H117.279V68.562ZM87.6685 77.6694V71.9533C87.6685 69.8007 86.2967 68.3526 84.0853 68.333C82.9229 68.3133 81.7234 68.6754 80.8837 69.9534C80.2556 68.9436 79.2655 68.333 77.8741 68.333C76.9014 68.333 75.9505 68.6187 75.2068 69.6851V68.562H73.2244V77.6694H75.2243V72.6206C75.2243 71.0395 76.101 70.1998 77.4553 70.1998C78.7704 70.1998 79.4356 71.0569 79.4356 72.601V77.6694H81.4377V72.6206C81.4377 71.0395 82.3515 70.1998 83.6665 70.1998C85.0187 70.1998 85.6664 71.0569 85.6664 72.601V77.6694H87.6685Z" fill="white"/>
<defs>
<filter id="filter0_d" x="0.188965" y="0.552734" width="244.787" height="151.404" filterUnits="userSpaceOnUse" color-interpolation-filters="sRGB">
<feFlood flood-opacity="0" result="BackgroundImageFix"/>
<feColorMatrix in="SourceAlpha" type="matrix" values="0 0 0 0 0 0 0 0 0 0 0 0 0 0 0 0 0 0 127 0"/>
<feOffset dy="4"/>
<feGaussianBlur stdDeviation="4.5"/>
<feColorMatrix type="matrix" values="0 0 0 0 0 0 0 0 0 0 0 0 0 0 0 0 0 0 0.04 0"/>
<feBlend mode="normal" in2="BackgroundImageFix" result="effect1_dropShadow"/>
<feBlend mode="normal" in="SourceGraphic" in2="effect1_dropShadow" result="shape"/>
</filter>
<filter id="filter1_d" x="0.188965" y="0.552734" width="244.787" height="151.404" filterUnits="userSpaceOnUse" color-interpolation-filters="sRGB">
<feFlood flood-opacity="0" result="BackgroundImageFix"/>
<feColorMatrix in="SourceAlpha" type="matrix" values="0 0 0 0 0 0 0 0 0 0 0 0 0 0 0 0 0 0 127 0"/>
<feOffset dy="4"/>
<feGaussianBlur stdDeviation="4.5"/>
<feColorMatrix type="matrix" values="0 0 0 0 0 0 0 0 0 0 0 0 0 0 0 0 0 0 0.04 0"/>
<feBlend mode="normal" in2="BackgroundImageFix" result="effect1_dropShadow"/>
<feBlend mode="normal" in="SourceGraphic" in2="effect1_dropShadow" result="shape"/>
</filter>
</defs>
</svg>
