<svg width="227" height="135" viewBox="0 0 227 135" fill="none" xmlns="http://www.w3.org/2000/svg">
<path d="M0.012207 16.7907C0.012207 7.94948 7.17946 0.782227 16.0207 0.782227H210.791C219.632 0.782227 226.799 7.94948 226.799 16.7907V118.178C226.799 127.019 219.632 134.186 210.791 134.186H16.0207C7.17946 134.186 0.012207 127.019 0.012207 118.178V16.7907Z" fill="#082069"/>
<path fill-rule="evenodd" clip-rule="evenodd" d="M210.791 2.11627H16.0207C7.91623 2.11627 1.34625 8.68625 1.34625 16.7907V118.178C1.34625 126.282 7.91623 132.852 16.0207 132.852H210.791C218.895 132.852 225.465 126.282 225.465 118.178V16.7907C225.465 8.68625 218.895 2.11627 210.791 2.11627ZM16.0207 0.782227C7.17946 0.782227 0.012207 7.94948 0.012207 16.7907V118.178C0.012207 127.019 7.17946 134.186 16.0207 134.186H210.791C219.632 134.186 226.799 127.019 226.799 118.178V16.7907C226.799 7.94948 219.632 0.782227 210.791 0.782227H16.0207Z" fill="#EDEAEE"/>
<path d="M73.9174 86.9795H65.7903C65.2341 86.9795 64.7612 87.3835 64.6744 87.9325L61.3874 108.773C61.3221 109.184 61.6406 109.555 62.0577 109.555H65.9376C66.4938 109.555 66.9667 109.151 67.0535 108.6L67.94 102.979C68.0256 102.429 68.4997 102.025 69.0547 102.025H71.6275C76.981 102.025 80.0707 99.4346 80.8776 94.3009C81.2412 92.0549 80.893 90.2902 79.8413 89.0544C78.6862 87.6973 76.6375 86.9795 73.9174 86.9795ZM74.855 94.5909C74.4106 97.5071 72.1824 97.5071 70.0279 97.5071H68.8016L69.6619 92.0609C69.713 91.7317 69.9982 91.4893 70.331 91.4893H70.8931C72.3607 91.4893 73.7451 91.4893 74.4605 92.3259C74.8871 92.825 75.0178 93.5665 74.855 94.5909Z" fill="white"/>
<path d="M98.211 94.4949H94.3191C93.9876 94.4949 93.7012 94.7373 93.6501 95.0665L93.4778 96.155L93.2056 95.7605C92.3631 94.5377 90.4843 94.1289 88.6091 94.1289C84.3085 94.1289 80.6353 97.3862 79.9199 101.955C79.5479 104.235 80.0768 106.414 81.3697 107.934C82.5556 109.331 84.2526 109.914 86.2716 109.914C89.7368 109.914 91.6584 107.686 91.6584 107.686L91.4849 108.767C91.4196 109.181 91.738 109.551 92.1528 109.551H95.6584C96.2157 109.551 96.6863 109.147 96.7743 108.597L98.8776 95.2769C98.9442 94.8669 98.6269 94.4949 98.211 94.4949ZM92.7862 102.069C92.4106 104.293 90.6459 105.785 88.3952 105.785C87.2651 105.785 86.3619 105.423 85.782 104.736C85.2069 104.054 84.9882 103.083 85.1712 102.002C85.5218 99.7973 87.3162 98.256 89.5325 98.256C90.6376 98.256 91.536 98.6232 92.1278 99.3161C92.7208 100.016 92.9561 100.993 92.7862 102.069Z" fill="white"/>
<path d="M118.938 94.4951H115.027C114.654 94.4951 114.303 94.6805 114.091 94.9907L108.698 102.936L106.411 95.3008C106.267 94.8231 105.826 94.4951 105.327 94.4951H101.484C101.017 94.4951 100.693 94.9514 100.841 95.3911L105.149 108.033L101.099 113.75C100.781 114.2 101.102 114.819 101.652 114.819H105.558C105.929 114.819 106.276 114.639 106.486 114.335L119.494 95.5587C119.805 95.1095 119.485 94.4951 118.938 94.4951Z" fill="white"/>
<path d="M131.885 86.9756H123.757C123.202 86.9756 122.729 87.3796 122.642 87.9286L119.355 108.769C119.29 109.18 119.609 109.551 120.023 109.551H124.194C124.582 109.551 124.913 109.268 124.974 108.883L125.907 102.976C125.992 102.425 126.467 102.021 127.022 102.021H129.593C134.948 102.021 138.036 99.4307 138.844 94.297C139.209 92.051 138.859 90.2863 137.807 89.0504C136.653 87.6933 134.606 86.9756 131.885 86.9756ZM132.823 94.587C132.38 97.5032 130.152 97.5032 127.996 97.5032H126.771L127.632 92.057C127.683 91.7278 127.966 91.4854 128.3 91.4854H128.862C130.329 91.4854 131.714 91.4854 132.43 92.322C132.856 92.8211 132.986 93.5626 132.823 94.587Z" fill="white"/>
<path d="M156.178 94.4949H152.289C151.955 94.4949 151.671 94.7373 151.621 95.0665L151.449 96.155L151.175 95.7605C150.333 94.5377 148.455 94.1289 146.58 94.1289C142.279 94.1289 138.607 97.3862 137.892 101.955C137.521 104.235 138.048 106.414 139.341 107.934C140.529 109.331 142.224 109.914 144.243 109.914C147.708 109.914 149.629 107.686 149.629 107.686L149.456 108.767C149.39 109.181 149.709 109.551 150.126 109.551H153.63C154.185 109.551 154.658 109.147 154.745 108.597L156.85 95.2769C156.914 94.8669 156.595 94.4949 156.178 94.4949ZM150.753 102.069C150.38 104.293 148.613 105.785 146.363 105.785C145.235 105.785 144.329 105.423 143.749 104.736C143.174 104.054 142.958 103.083 143.139 102.002C143.491 99.7973 145.284 98.256 147.5 98.256C148.605 98.256 149.503 98.6232 150.095 99.3161C150.691 100.016 150.926 100.993 150.753 102.069Z" fill="white"/>
<path d="M160.767 87.5484L157.431 108.77C157.366 109.181 157.685 109.552 158.099 109.552H161.453C162.01 109.552 162.483 109.148 162.569 108.598L165.858 87.7587C165.923 87.3475 165.605 86.9756 165.19 86.9756H161.435C161.103 86.9768 160.818 87.2192 160.767 87.5484Z" fill="white"/>
<path opacity="0.68" d="M133.682 34.2189C134.327 30.1081 133.678 27.3116 131.454 24.7777C129.006 21.9888 124.585 20.7939 118.927 20.7939H102.504C101.348 20.7939 100.363 21.6352 100.184 22.7778L93.3446 66.1419C93.21 66.9977 93.8715 67.7711 94.7369 67.7711H104.876L104.176 72.2085C104.058 72.9572 104.636 73.6337 105.394 73.6337H113.94C114.951 73.6337 115.812 72.898 115.97 71.8985L116.054 71.4637L117.664 61.255L117.768 60.691C117.925 59.6921 118.787 58.9553 119.798 58.9553H121.076C129.355 58.9553 135.838 55.592 137.732 45.8645C138.524 41.8 138.114 38.4072 136.021 36.0219C135.389 35.3018 134.601 34.7054 133.682 34.2189Z" fill="white"/>
<path opacity="0.7" d="M133.682 34.2189C134.327 30.1081 133.678 27.3116 131.454 24.7777C129.006 21.9888 124.585 20.7939 118.927 20.7939H102.504C101.348 20.7939 100.363 21.6352 100.184 22.7778L93.3446 66.1419C93.21 66.9977 93.8715 67.7711 94.7369 67.7711H104.876L107.422 51.6212L107.343 52.1276C107.524 50.9856 108.499 50.1438 109.656 50.1438H114.475C123.939 50.1438 131.349 46.2989 133.514 35.1796C133.579 34.8513 133.633 34.5321 133.682 34.2189Z" fill="white"/>
<path d="M110.159 34.2733C110.267 33.5865 110.708 33.0235 111.302 32.7394C111.571 32.6102 111.873 32.5381 112.189 32.5381H125.063C126.588 32.5381 128.01 32.6382 129.31 32.8476C129.681 32.9073 130.043 32.9762 130.394 33.0542C130.745 33.1323 131.086 33.2189 131.416 33.3158C131.581 33.3637 131.743 33.4148 131.903 33.4676C132.541 33.6796 133.136 33.9293 133.683 34.2194C134.328 30.1086 133.679 27.3121 131.455 24.7783C129.006 21.9888 124.585 20.7939 118.927 20.7939H102.504C101.348 20.7939 100.363 21.6352 100.184 22.7778L93.3446 66.1419C93.21 66.9977 93.8715 67.7711 94.7369 67.7711H104.876L107.422 51.6212L110.159 34.2733Z" fill="white"/>
</svg>
