<svg width="246" height="153" viewBox="0 0 246 153" fill="none" xmlns="http://www.w3.org/2000/svg">
<g filter="url(#filter0_d)">
<path d="M9.54199 21.7907C9.54199 12.9495 16.7092 5.78223 25.5505 5.78223H220.321C229.162 5.78223 236.329 12.9495 236.329 21.7907V123.178C236.329 132.019 229.162 139.186 220.321 139.186H25.5505C16.7092 139.186 9.54199 132.019 9.54199 123.178V21.7907Z" fill="#90B84F"/>
</g>
<g filter="url(#filter1_d)">
<path fill-rule="evenodd" clip-rule="evenodd" d="M220.321 7.11627H25.5505C17.446 7.11627 10.876 13.6863 10.876 21.7907V123.178C10.876 131.282 17.446 137.852 25.5505 137.852H220.321C228.425 137.852 234.995 131.282 234.995 123.178V21.7907C234.995 13.6863 228.425 7.11627 220.321 7.11627ZM25.5505 5.78223C16.7092 5.78223 9.54199 12.9495 9.54199 21.7907V123.178C9.54199 132.019 16.7092 139.186 25.5505 139.186H220.321C229.162 139.186 236.329 132.019 236.329 123.178V21.7907C236.329 12.9495 229.162 5.78223 220.321 5.78223H25.5505Z" fill="#EDEAEE"/>
</g>
<path d="M196.703 61.2754C194.624 59.8613 191.504 59.1465 187.41 59.1465H176.68L172.69 80.81H158.627L159.531 75.8945H168.003L169.009 70.376H160.543L161.447 65.4813H170.173L171.333 59.1465H153.615L149.825 79.6949H143.327L147.14 59.1465H137.878L134.093 79.6949H127.756L131.575 59.1465H122.321L118.323 80.81H104.158L105.055 75.8945H113.558L114.564 70.4072H106.069L106.961 65.4943H115.799L116.942 59.1465H61.7308L58.5959 76.3027L52.3365 59.1465H42.7186L37.5562 87.1604H46.7321L49.8514 69.5234L55.9263 87.1604H88.8245L92.8224 65.4943H97.9667L93.9636 87.1604H180.498L183.007 73.4823L187.067 87.1604H196.248L192.042 75.9829L193.001 75.7828C195.12 75.3305 196.773 74.3531 197.925 72.8922C199.076 71.4313 199.659 69.513 199.659 67.2437C199.666 64.5871 198.699 62.6375 196.703 61.2754ZM80.8365 80.81H66.7996L67.7068 75.8945H76.5189L77.5196 70.3578H68.7804L69.6226 65.4943H83.6595L80.8365 80.81ZM189.134 71.3638C188.211 72.0084 186.872 72.3229 185.042 72.3229H183.222L184.613 64.8054H185.949C187.47 64.8054 188.577 65.0498 189.341 65.5489C189.939 65.9362 190.641 66.7082 190.641 68.1691C190.662 69.9393 189.83 70.8855 189.134 71.3638Z" fill="white"/>
<path d="M203.807 85.3485L203.581 80.9295L205.533 80.8281C205.836 80.8009 206.141 80.8255 206.435 80.9009C206.649 80.9689 206.832 81.1084 206.955 81.296C207.088 81.4894 207.164 81.7165 207.173 81.951C207.195 82.2433 207.102 82.5326 206.913 82.7568C206.671 83.0129 206.348 83.178 205.998 83.2247C206.127 83.2745 206.249 83.3419 206.36 83.4249C206.557 83.5895 206.732 83.7791 206.88 83.989L207.704 85.1483L206.976 85.1873L206.347 84.2983C206.162 84.0384 206.011 83.846 205.894 83.7134C205.806 83.6044 205.702 83.5097 205.585 83.4327C205.5 83.3835 205.408 83.3484 205.312 83.3287C205.195 83.3152 205.077 83.3117 204.959 83.3183L204.283 83.3521L204.384 85.3095L203.807 85.3485ZM204.265 82.8582L205.518 82.7932C205.729 82.7906 205.938 82.7519 206.136 82.6789C206.275 82.6252 206.391 82.5251 206.464 82.3955C206.535 82.2745 206.569 82.1354 206.562 81.9952C206.56 81.8975 206.535 81.8016 206.49 81.7148C206.445 81.6279 206.381 81.5523 206.303 81.4935C206.09 81.3505 205.831 81.2913 205.577 81.3272L204.187 81.3974L204.265 82.8582Z" fill="white"/>
<path d="M205.099 78.9301C204.01 78.9872 202.987 79.4745 202.256 80.285C201.525 81.0954 201.145 82.1629 201.2 83.2529C201.228 83.7929 201.362 84.3222 201.594 84.8106C201.826 85.2989 202.152 85.7368 202.554 86.0991C203.364 86.8308 204.433 87.2105 205.523 87.1546C206.063 87.127 206.593 86.9932 207.081 86.761C207.569 86.5288 208.007 86.2027 208.369 85.8013C208.732 85.3999 209.011 84.931 209.192 84.4215C209.374 83.912 209.453 83.3718 209.425 82.8318C209.368 81.7412 208.88 80.7178 208.069 79.9862C207.258 79.2547 206.19 78.8749 205.099 78.9301ZM201.897 83.2165C201.864 82.7628 201.922 82.307 202.068 81.876C202.214 81.445 202.444 81.0474 202.745 80.7066C203.047 80.3657 203.413 80.0884 203.823 79.891C204.233 79.6935 204.678 79.5799 205.132 79.5567C205.587 79.5335 206.041 79.6012 206.469 79.7559C206.897 79.9107 207.289 80.1492 207.624 80.4576C207.958 80.7661 208.228 81.1381 208.416 81.5521C208.605 81.966 208.709 82.4135 208.723 82.8682C208.723 82.928 208.723 82.9852 208.723 83.0424C208.719 83.9315 208.37 84.7842 207.748 85.4196C207.126 86.055 206.281 86.423 205.392 86.4457C204.503 86.4684 203.64 86.1438 202.987 85.5409C202.334 84.9381 201.941 84.1043 201.892 83.2165H201.897Z" fill="white"/>
<defs>
<filter id="filter0_d" x="0.541992" y="0.782227" width="244.787" height="151.404" filterUnits="userSpaceOnUse" color-interpolation-filters="sRGB">
<feFlood flood-opacity="0" result="BackgroundImageFix"/>
<feColorMatrix in="SourceAlpha" type="matrix" values="0 0 0 0 0 0 0 0 0 0 0 0 0 0 0 0 0 0 127 0"/>
<feOffset dy="4"/>
<feGaussianBlur stdDeviation="4.5"/>
<feColorMatrix type="matrix" values="0 0 0 0 0 0 0 0 0 0 0 0 0 0 0 0 0 0 0.04 0"/>
<feBlend mode="normal" in2="BackgroundImageFix" result="effect1_dropShadow"/>
<feBlend mode="normal" in="SourceGraphic" in2="effect1_dropShadow" result="shape"/>
</filter>
<filter id="filter1_d" x="0.541992" y="0.782227" width="244.787" height="151.404" filterUnits="userSpaceOnUse" color-interpolation-filters="sRGB">
<feFlood flood-opacity="0" result="BackgroundImageFix"/>
<feColorMatrix in="SourceAlpha" type="matrix" values="0 0 0 0 0 0 0 0 0 0 0 0 0 0 0 0 0 0 127 0"/>
<feOffset dy="4"/>
<feGaussianBlur stdDeviation="4.5"/>
<feColorMatrix type="matrix" values="0 0 0 0 0 0 0 0 0 0 0 0 0 0 0 0 0 0 0.04 0"/>
<feBlend mode="normal" in2="BackgroundImageFix" result="effect1_dropShadow"/>
<feBlend mode="normal" in="SourceGraphic" in2="effect1_dropShadow" result="shape"/>
</filter>
</defs>
</svg>
