<svg width="227" height="135" viewBox="0 0 227 135" fill="none" xmlns="http://www.w3.org/2000/svg">
<path d="M0.189209 16.7907C0.189209 7.94948 7.35647 0.782227 16.1977 0.782227H210.968C219.809 0.782227 226.976 7.94948 226.976 16.7907V118.178C226.976 127.019 219.809 134.186 210.968 134.186H16.1977C7.35646 134.186 0.189209 127.019 0.189209 118.178V16.7907Z" fill="#57215D"/>
<path fill-rule="evenodd" clip-rule="evenodd" d="M210.968 2.11627H16.1977C8.09324 2.11627 1.52325 8.68625 1.52325 16.7907V118.178C1.52325 126.282 8.09323 132.852 16.1977 132.852H210.968C219.072 132.852 225.642 126.282 225.642 118.178V16.7907C225.642 8.68625 219.072 2.11627 210.968 2.11627ZM16.1977 0.782227C7.35646 0.782227 0.189209 7.94948 0.189209 16.7907V118.178C0.189209 127.019 7.35646 134.186 16.1977 134.186H210.968C219.809 134.186 226.976 127.019 226.976 118.178V16.7907C226.976 7.94948 219.809 0.782227 210.968 0.782227H16.1977Z" fill="#EDEAEE"/>
<path fill-rule="evenodd" clip-rule="evenodd" d="M131.845 59.1697C133.811 59.1697 135.404 57.4481 135.404 55.3251C135.404 53.2008 133.811 51.4775 131.845 51.4775C129.881 51.4775 128.289 53.2008 128.289 55.3251C128.289 57.4481 129.881 59.1697 131.845 59.1697ZM104.586 61.246C104.426 61.6821 103.27 65.2118 100.474 68.87V53.2281L93.0254 54.8195V83.1721H100.474V74.4081C102.632 77.906 103.697 83.1721 103.697 83.1721H112.619C111.736 79.206 107.876 71.8929 107.876 71.8929C111.341 67.1442 112.862 62.0843 113.104 61.246H104.586ZM124.169 60.95C117.497 61.1815 114.11 64.4173 114.11 70.8495V83.1721H121.389V73.1234C121.389 69.2718 121.855 67.6208 126.083 67.4633V61.0629C125.372 60.8996 124.169 60.95 124.169 60.95ZM80.5331 64.3681C79.6207 64.3032 77.5085 64.1556 77.5085 62.1C77.5085 59.6194 80.5495 59.6194 81.6902 59.6194C83.6958 59.6194 86.2933 60.2601 88.1482 60.8599C88.1482 60.8599 89.1829 61.2543 90.0635 61.6581L90.1453 61.6821V54.8886L90.0329 54.8526C87.8438 54.0246 85.2983 53.2281 80.579 53.2281C72.442 53.2281 69.5588 58.3525 69.5588 62.7424C69.5588 65.2729 70.5622 71.2286 79.8811 71.9156C80.6711 71.9681 82.7677 72.0987 82.7677 74.2229C82.7677 75.9768 81.0512 77.011 78.1643 77.011C75.0005 77.011 71.9315 76.1389 70.0674 75.3117V82.3086C72.858 83.0994 76.0038 83.4946 79.6907 83.4946C87.6469 83.4946 91.2103 78.6463 91.2103 73.841C91.2103 68.3925 87.2228 64.8525 80.5331 64.3681ZM128.237 83.1721H135.456V61.2708H128.237V83.1721ZM149.051 54.6244V83.1721H156.272V53.2281L149.051 54.6244ZM138.515 54.6244L145.729 53.2281V83.1721H138.515V54.6244Z" fill="white"/>
</svg>
