<svg width="246" height="153" viewBox="0 0 246 153" fill="none" xmlns="http://www.w3.org/2000/svg">
<g filter="url(#filter0_d)">
<path d="M9.34644 21.8972C9.34644 13.0559 16.5137 5.88867 25.3549 5.88867H220.125C228.966 5.88867 236.134 13.0559 236.134 21.8972V123.284C236.134 132.126 228.966 139.293 220.125 139.293H25.3549C16.5137 139.293 9.34644 132.126 9.34644 123.284V21.8972Z" fill="white"/>
</g>
<g filter="url(#filter1_d)">
<path fill-rule="evenodd" clip-rule="evenodd" d="M220.125 7.22271H25.3549C17.2505 7.22271 10.6805 13.7927 10.6805 21.8972V123.284C10.6805 131.389 17.2505 137.959 25.3549 137.959H220.125C228.23 137.959 234.8 131.389 234.8 123.284V21.8972C234.8 13.7927 228.23 7.22271 220.125 7.22271ZM25.3549 5.88867C16.5137 5.88867 9.34644 13.0559 9.34644 21.8972V123.284C9.34644 132.126 16.5137 139.293 25.3549 139.293H220.125C228.966 139.293 236.134 132.126 236.134 123.284V21.8972C236.134 13.0559 228.966 5.88867 220.125 5.88867H25.3549Z" fill="#EDEAEE"/>
</g>
<path d="M104.267 98.4664H112.895L114.395 103.278H119.699L111.459 79.9001H105.828L97.5004 103.281H102.642L104.267 98.4664ZM108.565 85.1785H108.632L111.527 94.4223H105.568L108.565 85.1785ZM96.0823 96.3539C96.0823 94.04 95.3354 91.7612 92.47 90.6903C93.4446 90.2031 95.3354 89.2606 95.3354 85.9021C95.3354 83.492 93.8706 79.906 88.137 79.906H76.7749V103.29H86.6752C91.4634 103.29 92.7326 102.476 94.0661 101.165C95.3004 99.9662 96.0823 98.2009 96.0823 96.3539ZM81.4668 83.9501H87.0691C89.2808 83.9501 90.6493 84.5337 90.6493 86.4536C90.6493 88.3152 89.1233 89.0622 87.1946 89.0622H81.4668V83.9501ZM87.4542 99.2484H81.4668V92.9954H87.6848C89.4471 92.9954 91.2008 93.7862 91.2008 95.8287C91.1979 98.2009 89.8294 99.2484 87.4542 99.2484ZM157.293 89.4794L167.386 103.278H161.101L153.873 93.0217L151.594 95.3677V103.278H146.71V79.9001H151.594V89.4065L160.52 79.9001H166.834L157.293 89.4794ZM97.5033 116.262C97.5033 114.027 96.9664 113.66 95.9831 113.228C97.1678 112.828 97.836 111.699 97.836 110.371C97.836 109.338 97.2553 106.989 94.069 106.989H88.0116V118.964H90.4684V114.281H93.0507C94.9035 114.281 95.0056 114.917 95.0056 116.545C95.0056 117.777 95.1019 118.401 95.2683 118.961H98.0373V118.649C97.5033 118.448 97.5033 118.01 97.5033 116.262ZM93.3921 112.268H90.4655V109.058H93.5817C95.0465 109.058 95.3324 109.986 95.3324 110.625C95.3295 111.804 94.6993 112.268 93.3921 112.268ZM101.51 59.4372C101.492 58.9003 101.475 58.2526 101.451 57.5056C101.404 56.747 101.6 55.9241 101.679 54.9933C101.775 54.0596 101.901 53.0471 102.254 52.0142C102.551 50.9725 102.811 49.8287 103.383 48.7637C103.634 48.2152 103.891 47.652 104.159 47.0859C104.439 46.5286 104.827 46.0238 105.163 45.4782C105.825 44.3578 106.683 43.3715 107.561 42.3853C108.41 41.3553 109.458 40.5704 110.412 39.6629C111.459 38.9218 112.457 38.0639 113.528 37.4599C114.582 36.7947 115.62 36.1994 116.644 35.7092C117.654 35.1636 118.655 34.7959 119.568 34.3874C120.98 33.8389 122.235 33.4129 123.268 33.1094C122.836 32.0473 122.466 30.9415 122.191 29.7627C121.902 28.5488 121.657 27.3087 121.634 25.8994C122.991 26.2787 124.126 26.8302 125.232 27.4079C126.332 27.9915 127.335 28.6422 128.275 29.3483C130.172 30.746 131.785 32.3595 133.25 34.0898C134.362 35.3999 134.458 37.2294 133.632 38.6271L133.46 38.913C132.115 41.1627 130.513 43.2548 128.576 45.1281C127.618 46.0676 126.559 46.9459 125.383 47.7541C124.791 48.151 124.17 48.5361 123.536 48.9067C122.88 49.2656 122.188 49.5953 121.427 49.8871C121.374 49.0759 121.386 48.3056 121.444 47.5616C121.517 46.8292 121.611 46.1114 121.724 45.4023C121.975 44.0047 122.334 42.6771 122.795 41.4136C122.842 41.2765 122.897 41.1481 122.95 41.0139C122.501 41.0693 122.034 41.1306 121.526 41.2036C120.735 41.3728 119.828 41.4895 118.926 41.7521C117.998 41.9622 117.05 42.2569 116.087 42.607C115.078 42.9047 114.173 43.4182 113.146 43.8296C112.244 44.3869 111.203 44.845 110.348 45.5249C109.452 46.1727 108.547 46.8263 107.806 47.6345C107.43 48.0255 106.992 48.3844 106.651 48.8016C106.327 49.2306 106 49.6624 105.682 50.0797C104.976 50.8937 104.541 51.8362 104.063 52.7086C103.537 53.5665 103.219 54.4594 102.945 55.2968C102.688 56.1342 102.318 56.8928 102.21 57.6077C102.073 58.3255 101.953 58.947 101.857 59.4635C101.664 60.5052 101.55 61.1033 101.55 61.1033C101.55 61.1033 101.542 60.4964 101.51 59.4372ZM76.7778 106.989H86.5176V109.117H82.8907V118.97H80.396V109.117H76.7778V106.989ZM103.062 106.989L98.793 118.964H101.431L102.262 116.493H106.68L107.45 118.964H110.17L105.953 106.989H103.062ZM102.933 114.427L104.471 109.694H104.495L105.988 114.427H102.933ZM125.048 66.583C124.053 67.1579 123.064 67.5605 122.165 67.9924C120.767 68.5818 119.533 69.0428 118.506 69.3783C118.973 70.4258 119.373 71.523 119.685 72.693C119.997 73.8981 120.283 75.1294 120.356 76.5329C118.982 76.1974 117.832 75.678 116.714 75.1353C115.591 74.5867 114.567 73.9681 113.61 73.2883C111.678 71.949 110.015 70.3821 108.498 68.6985C107.345 67.4205 107.194 65.5968 107.978 64.1729L108.145 63.8869C109.423 61.5964 110.96 59.4576 112.84 57.5289C113.767 56.5573 114.8 55.6498 115.944 54.8066C116.531 54.3922 117.129 53.9896 117.756 53.6015C118.401 53.2222 119.084 52.8691 119.837 52.5598C119.91 53.3652 119.921 54.1384 119.883 54.8824C119.831 55.6177 119.764 56.3385 119.673 57.0504C119.463 58.4539 119.142 59.7903 118.722 61.0712C118.675 61.2084 118.62 61.3367 118.579 61.4739C119.022 61.4068 119.492 61.3309 119.997 61.2405C120.785 61.0508 121.684 60.9078 122.574 60.616C123.496 60.3797 124.438 60.0587 125.386 59.6765C126.387 59.3526 127.277 58.8099 128.287 58.3693C129.174 57.7828 130.207 57.2984 131.032 56.5923C131.911 55.9212 132.795 55.2355 133.507 54.4098C133.883 54.0071 134.303 53.6336 134.639 53.2105C134.948 52.767 135.26 52.3293 135.564 51.9004C136.247 51.063 136.652 50.1118 137.102 49.2247C137.603 48.3494 137.892 47.4507 138.134 46.6045C138.368 45.7583 138.715 44.9909 138.803 44.2731C138.916 43.5524 139.013 42.9251 139.097 42.4086C139.275 41.3611 139.36 40.763 139.36 40.763C139.36 40.763 139.407 41.364 139.462 42.4203C139.491 42.9572 139.526 43.6079 139.576 44.3519C139.64 45.1076 139.48 45.9392 139.418 46.87C139.354 47.8037 139.249 48.8221 138.934 49.8608C138.665 50.9083 138.438 52.0609 137.901 53.1405C137.668 53.6978 137.422 54.2668 137.177 54.8416C136.909 55.4077 136.544 55.9241 136.223 56.4814C135.593 57.6223 134.77 58.629 133.921 59.6415C133.101 60.6919 132.077 61.5147 131.152 62.4455C130.122 63.2188 129.147 64.1058 128.097 64.7419C127.079 65.4392 126.052 66.0666 125.048 66.583ZM134.977 106.989H143.497V109.117H137.481V111.819H142.75V113.937H137.481V118.973H134.977V106.989ZM119.093 106.989H121.43V118.964H118.923L114.039 110.424H114.001V118.964H111.67V106.989H114.301L119.06 115.326H119.09L119.093 106.989ZM165.802 116.262C165.802 114.027 165.259 113.66 164.281 113.228C165.46 112.828 166.14 111.699 166.14 110.371C166.14 109.338 165.553 106.989 162.367 106.989H156.316V118.964H158.772V114.281H161.355C163.202 114.281 163.31 114.917 163.31 116.545C163.31 117.777 163.406 118.401 163.575 118.961H166.335V118.649C165.802 118.448 165.802 118.01 165.802 116.262ZM161.699 112.268H158.769V109.058H161.88C163.351 109.058 163.636 109.986 163.636 110.625C163.636 111.804 163.003 112.268 161.699 112.268ZM133.066 115.364C133.066 118.956 129.393 119.282 128.348 119.282C123.977 119.282 123.233 116.77 123.233 115.279H125.626C125.643 115.947 125.979 117.214 128.167 117.214C129.343 117.214 130.665 116.922 130.665 115.67C130.665 114.731 129.76 114.485 128.497 114.179L127.216 113.876C125.278 113.432 123.414 112.991 123.414 110.354C123.414 109.02 124.129 106.671 128.015 106.671C131.686 106.671 132.666 109.07 132.684 110.538H130.291C130.224 110.004 130.023 108.74 127.834 108.74C126.889 108.74 125.748 109.087 125.748 110.17C125.748 111.104 126.518 111.305 127.02 111.425L129.932 112.142C131.563 112.539 133.066 113.213 133.066 115.364ZM147.629 116.846H154.267V118.97H145.178V106.995H153.987V109.119H147.629V111.635H153.465V113.753H147.629V116.846ZM127.163 103.29H122.606V79.9089H127.75L137.034 96.1876H137.096V79.9089H141.653V103.293H136.775L127.23 86.6229H127.169L127.163 103.29Z" fill="black"/>
<defs>
<filter id="filter0_d" x="0.346436" y="0.888672" width="244.787" height="151.404" filterUnits="userSpaceOnUse" color-interpolation-filters="sRGB">
<feFlood flood-opacity="0" result="BackgroundImageFix"/>
<feColorMatrix in="SourceAlpha" type="matrix" values="0 0 0 0 0 0 0 0 0 0 0 0 0 0 0 0 0 0 127 0"/>
<feOffset dy="4"/>
<feGaussianBlur stdDeviation="4.5"/>
<feColorMatrix type="matrix" values="0 0 0 0 0 0 0 0 0 0 0 0 0 0 0 0 0 0 0.04 0"/>
<feBlend mode="normal" in2="BackgroundImageFix" result="effect1_dropShadow"/>
<feBlend mode="normal" in="SourceGraphic" in2="effect1_dropShadow" result="shape"/>
</filter>
<filter id="filter1_d" x="0.346436" y="0.888672" width="244.787" height="151.404" filterUnits="userSpaceOnUse" color-interpolation-filters="sRGB">
<feFlood flood-opacity="0" result="BackgroundImageFix"/>
<feColorMatrix in="SourceAlpha" type="matrix" values="0 0 0 0 0 0 0 0 0 0 0 0 0 0 0 0 0 0 127 0"/>
<feOffset dy="4"/>
<feGaussianBlur stdDeviation="4.5"/>
<feColorMatrix type="matrix" values="0 0 0 0 0 0 0 0 0 0 0 0 0 0 0 0 0 0 0.04 0"/>
<feBlend mode="normal" in2="BackgroundImageFix" result="effect1_dropShadow"/>
<feBlend mode="normal" in="SourceGraphic" in2="effect1_dropShadow" result="shape"/>
</filter>
</defs>
</svg>
