<svg width="246" height="152" viewBox="0 0 246 152" fill="none" xmlns="http://www.w3.org/2000/svg">
<g filter="url(#filter0_d)">
<path d="M9.71924 21.2302C9.71924 12.3889 16.8865 5.22168 25.7278 5.22168H220.498C229.339 5.22168 236.506 12.3889 236.506 21.2302V122.617C236.506 131.459 229.339 138.626 220.498 138.626H25.7277C16.8865 138.626 9.71924 131.459 9.71924 122.617V21.2302Z" fill="#2E408B"/>
</g>
<g filter="url(#filter1_d)">
<path fill-rule="evenodd" clip-rule="evenodd" d="M220.498 6.55572H25.7278C17.6233 6.55572 11.0533 13.1257 11.0533 21.2302V122.617C11.0533 130.722 17.6233 137.292 25.7277 137.292H220.498C228.602 137.292 235.172 130.722 235.172 122.617V21.2302C235.172 13.1257 228.602 6.55572 220.498 6.55572ZM25.7278 5.22168C16.8865 5.22168 9.71924 12.3889 9.71924 21.2302V122.617C9.71924 131.459 16.8865 138.626 25.7277 138.626H220.498C229.339 138.626 236.506 131.459 236.506 122.617V21.2302C236.506 12.3889 229.339 5.22168 220.498 5.22168H25.7278Z" fill="#EDEAEE"/>
</g>
<path d="M187.146 59.62H180.556L176.661 75.6285L176.062 77.8519C175.613 78.0002 175.313 78.0002 174.864 78.1484C174.265 78.2966 173.666 78.2966 172.917 78.2966C172.018 78.2966 171.419 78.1484 170.82 77.8519C170.37 77.5555 169.921 77.259 169.771 76.8144C169.621 76.3697 169.472 75.7768 169.472 75.1839C169.472 74.5909 169.621 73.8498 169.771 73.2569L171.868 64.9562L173.216 59.4718H166.476L163.33 72.3675C162.881 73.998 162.731 75.4803 162.731 76.6661C162.731 78.1484 162.881 79.3342 163.33 80.3718C163.78 81.4094 164.678 82.2987 165.877 82.8917C167.075 83.4846 168.723 83.781 170.67 83.781C172.168 83.781 173.516 83.6328 174.564 83.3363H174.714C174.415 84.6704 173.815 85.708 172.767 86.5973C171.718 87.4867 170.37 87.9314 168.573 87.9314C167.824 87.9314 166.925 87.9314 166.326 87.7831L164.978 93.1193C165.877 93.2675 166.925 93.2675 167.974 93.2675C170.071 93.2675 171.868 92.9711 173.216 92.5264C174.714 92.0817 176.062 91.3406 177.26 90.4512C178.309 89.5619 179.358 88.376 180.106 86.8938C180.855 85.4115 181.455 83.781 181.904 82.0023L186.398 62.881L187.146 59.62ZM159.436 73.4051C158.986 75.0356 158.837 76.8144 158.986 78.4448C159.136 80.2236 159.885 82.5952 160.484 83.9292H154.043C153.295 82.5952 153.295 82.0023 153.145 81.5576C152.246 82.2987 151.347 82.7434 150.299 83.1881C149.25 83.6328 148.202 83.9292 146.854 83.9292C145.356 83.9292 144.008 83.6328 142.959 83.1881C141.911 82.7434 141.012 82.0023 140.263 81.1129C139.514 80.2236 139.065 79.186 138.765 78.0002C138.466 76.8143 138.316 75.6285 138.316 74.1463C138.316 72.0711 138.765 70.1441 139.364 68.5136C140.113 66.7349 141.162 65.1044 142.51 63.9186C143.858 62.5846 146.854 59.62 152.096 59.62H162.432L159.436 73.4051ZM154.643 65.2526C151.497 65.2526 150.898 65.2526 149.7 65.8456C148.801 66.2902 148.052 67.0314 147.303 67.9207C146.704 68.6619 146.105 69.6995 145.655 70.737C145.206 71.7746 145.056 72.9604 145.056 74.1463C145.056 75.6285 145.356 76.6661 145.805 77.5555C146.255 78.4448 147.153 78.7413 148.501 78.7413C149.25 78.7413 149.849 78.5931 150.449 78.2966C151.048 78.0002 151.647 77.5555 152.246 76.9626C152.246 76.2214 152.396 75.4803 152.546 74.5909C152.695 73.7016 152.845 72.9604 152.995 72.3675L154.643 65.2526ZM136.818 69.2548C136.818 71.4782 136.369 73.4051 135.769 75.1839C135.02 76.9626 133.972 78.5931 132.774 79.7789C131.426 81.1129 129.928 82.1505 128.28 82.8917C126.483 83.6328 124.535 84.0775 122.588 84.0775C121.54 84.0775 120.491 83.9292 119.443 83.781L117.346 91.7853H110.755L118.394 59.7683H127.232C128.879 59.7683 130.377 60.0647 131.426 60.5094C132.624 60.9541 133.672 61.6952 134.421 62.5846C135.17 63.4739 135.769 64.5115 136.219 65.6973C136.668 66.7349 136.818 67.9207 136.818 69.2548ZM120.491 78.2966C120.94 78.4448 121.689 78.4448 122.438 78.4448C123.637 78.4448 124.685 78.2966 125.734 77.8519C126.632 77.4073 127.531 76.8144 128.28 76.0732C129.029 75.3321 129.478 74.2945 129.928 73.2569C130.377 72.2193 130.527 70.8853 130.527 69.5512C130.527 68.2172 130.227 67.1796 129.628 66.2902C129.029 65.4009 127.98 64.9562 126.632 64.9562H123.936L120.491 78.2966ZM106.711 78.2966C105.812 78.2966 105.213 78.1484 104.614 77.8519C104.164 77.5555 103.715 77.259 103.565 76.8144C103.415 76.3697 103.266 75.7768 103.266 75.1839C103.266 74.5909 103.415 73.8498 103.565 73.2569L105.662 64.9562H113.152L114.5 59.4718H106.86L108.658 52.5051L101.618 53.6909L97.1243 72.5158C96.675 74.1463 96.5252 75.6285 96.5252 76.8144C96.5252 78.2966 96.675 79.4824 97.1243 80.52C97.5737 81.5576 98.4724 82.447 99.6707 83.0399C100.869 83.6328 102.517 83.9292 104.464 83.9292C105.962 83.9292 107.31 83.781 108.358 83.4846C108.508 83.4846 108.658 83.4846 108.808 83.3363L110.156 77.7037C109.706 77.8519 109.257 78.0002 108.808 78.0002C108.059 78.2966 107.46 78.2966 106.711 78.2966ZM89.7847 59.62L83.943 83.9292H90.5337L96.3754 59.62H89.7847ZM96.9745 56.8037L98.023 52.6534H91.4324L90.3839 56.8037H96.9745ZM75.1056 59.62C76.6035 59.62 77.8018 59.9165 78.8503 60.3612C79.8988 60.8058 80.7975 61.547 81.5465 62.4363C82.2954 63.3257 82.7448 64.3633 83.0443 65.5491C83.3439 66.7349 83.4937 67.9207 83.4937 69.2548C83.4937 71.33 83.0443 73.2569 82.2954 75.0356C81.5465 76.8143 80.4979 78.4448 79.1499 79.7789C77.8018 81.2612 76.3039 82.1505 74.5065 83.0399C72.709 83.781 70.7618 84.2257 68.8145 84.2257H67.1669C66.4179 84.2257 65.669 84.2257 64.7703 84.0775C63.8716 83.9292 62.9728 83.781 61.9243 83.4846C60.8758 83.1881 59.9771 82.8917 59.0784 82.447L66.8673 50.2817L73.7575 49.2441L70.9116 60.6576C71.5107 60.3612 72.1099 60.2129 72.709 60.0647C73.7575 59.62 74.3567 59.62 75.1056 59.62ZM69.1141 78.5931C70.1626 78.5931 71.2111 78.2966 72.1099 77.8519C73.0086 77.4073 73.9073 76.6661 74.5065 75.7768C75.2554 74.8874 75.7048 73.998 76.1541 72.9604C76.6035 71.9229 76.7533 70.737 76.7533 69.5512C76.7533 68.069 76.4537 67.0314 76.0043 66.142C75.555 65.4009 74.5065 64.9562 73.1584 64.9562C72.709 64.9562 72.2596 64.9562 71.6605 65.1044C70.9116 65.2527 70.4622 65.5491 69.8631 65.9938L66.8673 78.1484C67.766 78.2966 68.0656 78.2966 68.2154 78.2966C68.515 78.5931 68.8145 78.5931 69.1141 78.5931Z" fill="white"/>
<defs>
<filter id="filter0_d" x="0.719238" y="0.22168" width="244.787" height="151.404" filterUnits="userSpaceOnUse" color-interpolation-filters="sRGB">
<feFlood flood-opacity="0" result="BackgroundImageFix"/>
<feColorMatrix in="SourceAlpha" type="matrix" values="0 0 0 0 0 0 0 0 0 0 0 0 0 0 0 0 0 0 127 0"/>
<feOffset dy="4"/>
<feGaussianBlur stdDeviation="4.5"/>
<feColorMatrix type="matrix" values="0 0 0 0 0 0 0 0 0 0 0 0 0 0 0 0 0 0 0.04 0"/>
<feBlend mode="normal" in2="BackgroundImageFix" result="effect1_dropShadow"/>
<feBlend mode="normal" in="SourceGraphic" in2="effect1_dropShadow" result="shape"/>
</filter>
<filter id="filter1_d" x="0.719238" y="0.22168" width="244.787" height="151.404" filterUnits="userSpaceOnUse" color-interpolation-filters="sRGB">
<feFlood flood-opacity="0" result="BackgroundImageFix"/>
<feColorMatrix in="SourceAlpha" type="matrix" values="0 0 0 0 0 0 0 0 0 0 0 0 0 0 0 0 0 0 127 0"/>
<feOffset dy="4"/>
<feGaussianBlur stdDeviation="4.5"/>
<feColorMatrix type="matrix" values="0 0 0 0 0 0 0 0 0 0 0 0 0 0 0 0 0 0 0.04 0"/>
<feBlend mode="normal" in2="BackgroundImageFix" result="effect1_dropShadow"/>
<feBlend mode="normal" in="SourceGraphic" in2="effect1_dropShadow" result="shape"/>
</filter>
</defs>
</svg>
