<svg width="246" height="135" viewBox="0 0 246 135" fill="none" xmlns="http://www.w3.org/2000/svg">
<mask id="mask0" mask-type="alpha" maskUnits="userSpaceOnUse" x="9" y="0" width="228" height="135">
<path d="M9.36499 16.8972C9.36499 8.05593 16.5322 0.888672 25.3735 0.888672H220.144C228.985 0.888672 236.152 8.05593 236.152 16.8972V118.284C236.152 127.126 228.985 134.293 220.144 134.293H25.3735C16.5322 134.293 9.36499 127.126 9.36499 118.284V16.8972Z" fill="#011655"/>
</mask>
<g mask="url(#mask0)">
<path d="M6.93037 0.887695H101.449C108.848 0.887695 113.45 6.94421 111.724 14.3994L87.0457 120.801C85.3041 128.23 77.896 134.292 70.4917 134.292H-24.0213C-31.4101 134.292 -36.0224 128.23 -34.2964 120.801L-9.60813 14.3994C-7.88206 6.94421 -0.477779 0.887695 6.93037 0.887695Z" fill="#E21836"/>
<path d="M98.8145 0.887695H159.533C166.903 0.887695 163.58 6.94421 161.846 14.3994L137.268 120.801C135.543 128.23 136.081 134.292 128.697 134.292H67.9776C60.593 134.292 56.023 128.23 57.7578 120.801L82.3349 14.3994C84.0801 6.94421 91.4402 0.887695 98.8145 0.887695Z" fill="#00447C"/>
<path d="M157.673 0.887695H252.194C259.603 0.887695 264.206 6.94421 262.465 14.3994L237.79 120.801C236.049 128.23 228.635 134.292 221.227 134.292H126.73C119.317 134.292 114.719 128.23 116.455 120.801L141.134 14.3994C142.86 6.94421 150.259 0.887695 157.673 0.887695Z" fill="#007B84"/>
</g>
<path d="M75.7678 41.0485C71.6737 41.0899 70.4646 41.0485 70.0784 40.9581C69.9299 41.6575 67.1672 54.2933 67.1595 54.3038C66.5646 56.8602 66.1318 58.6825 64.6617 59.8592C63.8272 60.5433 62.8529 60.8733 61.7234 60.8733C59.9078 60.8733 58.8501 59.9795 58.6725 58.2842L58.6385 57.7021C58.6385 57.7021 59.1916 54.2779 59.1916 54.2586C59.1916 54.2586 62.0912 42.7438 62.6103 41.2217C62.6375 41.1351 62.6452 41.0899 62.652 41.0485C57.0083 41.0976 56.0078 41.0485 55.9389 40.9581C55.9011 41.0822 55.7613 41.7961 55.7613 41.7961L52.8007 54.7743L52.5464 55.875L52.0544 59.4753C52.0544 60.5433 52.266 61.415 52.6871 62.152C54.036 64.489 57.8836 64.8392 60.0601 64.8392C62.8645 64.8392 65.4953 64.2485 67.273 63.1699C70.3588 61.3621 71.1662 58.5363 71.8862 56.0251L72.22 54.7368C72.22 54.7368 75.2069 42.7775 75.7144 41.2217C75.7338 41.1351 75.7416 41.0899 75.7678 41.0485ZM85.9304 50.6962C85.2103 50.6962 83.8945 50.8694 82.7125 51.4438C82.2836 51.6622 81.878 51.9143 81.4501 52.1654L81.8363 50.7828L81.6247 50.55C79.1182 51.0532 78.5574 51.1205 76.242 51.4438L76.0479 51.5718C75.7791 53.7818 75.5404 55.4434 74.5438 59.7874C74.1644 61.3884 73.7704 63.0048 73.3755 64.602L73.4822 64.805C75.8548 64.6809 76.5749 64.6809 78.6369 64.7145L78.8038 64.5346C79.0658 63.204 79.0998 62.8923 79.6801 60.1973C79.9528 58.9196 80.5214 56.1121 80.8019 55.1124C81.3171 54.8757 81.8256 54.6429 82.3108 54.6429C83.4665 54.6429 83.3258 55.6426 83.2812 56.0409C83.2317 56.7096 82.8106 58.8936 82.3787 60.7688L82.0905 61.9792C81.8897 62.873 81.6694 63.7418 81.4685 64.6279L81.5558 64.805C83.8945 64.6809 84.6077 64.6809 86.6048 64.7145L86.8396 64.5346C87.2006 62.4564 87.3064 61.9003 87.9468 58.8744L88.269 57.4841C88.8949 54.7632 89.2093 53.3835 88.7357 52.2597C88.235 51.0003 87.0337 50.6962 85.9304 50.6962ZM97.2831 53.545C96.04 53.7817 95.2472 53.9395 94.4593 54.0415C93.6781 54.1656 92.9164 54.2782 91.715 54.4436L91.6199 54.5293L91.5326 54.5976C91.4074 55.4847 91.3201 56.2515 91.1541 57.153C91.0134 58.0853 90.797 59.1446 90.4448 60.6667C90.1721 61.8319 90.0314 62.2379 89.8761 62.6478C89.7248 63.0576 89.5578 63.456 89.2512 64.6019L89.323 64.7077L89.3832 64.8049C90.5059 64.752 91.2405 64.7144 91.9955 64.7077C92.7495 64.6808 93.5306 64.7077 94.7397 64.7144L94.8455 64.6288L94.959 64.5345C95.1337 63.5012 95.1599 63.2231 95.2666 62.719C95.3724 62.1783 95.5548 61.4297 96.0022 59.4304C96.2137 58.4913 96.4495 57.5552 96.6688 56.5969C96.8969 55.6425 97.1356 54.7025 97.3627 53.7634L97.3287 53.6499L97.2831 53.545ZM97.3096 49.704C96.1801 49.043 94.1976 49.2527 92.8633 50.1658C91.5329 51.0606 91.3815 52.3306 92.5071 53.0002C93.6173 53.643 95.6075 53.4515 96.9302 52.5307C98.2577 51.6167 98.4236 50.3582 97.3096 49.704ZM104.141 65.012C106.426 65.012 108.768 64.3876 110.532 62.5345C111.888 61.0317 112.51 58.7957 112.726 57.8749C113.427 54.823 112.881 53.3981 112.195 52.5302C111.153 51.2073 109.311 50.783 107.4 50.783C106.251 50.783 103.515 50.8956 101.377 52.8497C99.8418 54.2592 99.1325 56.1719 98.7045 58.0058C98.2727 59.8742 97.7759 63.2379 100.896 64.4896C101.858 64.8995 103.246 65.012 104.141 65.012ZM103.962 58.1453C104.489 55.8342 105.111 53.8946 106.699 53.8946C107.943 53.8946 108.033 55.3378 107.48 57.6565C107.381 58.1712 106.927 60.0849 106.312 60.8999C105.883 61.5012 105.376 61.8658 104.815 61.8658C104.648 61.8658 103.655 61.8659 103.64 60.4044C103.632 59.6828 103.781 58.9458 103.962 58.1453ZM118.438 64.7148L118.617 64.5349C118.87 63.2043 118.912 62.8916 119.473 60.1976C119.753 58.9199 120.333 56.1124 120.606 55.1127C121.122 54.8751 121.622 54.6422 122.123 54.6422C123.271 54.6422 123.131 55.6419 123.085 56.0402C123.044 56.7099 122.623 58.8929 122.183 60.7682L121.91 61.9785C121.702 62.8733 121.475 63.7411 121.274 64.6282L121.361 64.8053C123.707 64.6812 124.394 64.6812 126.402 64.7148L126.645 64.5349C126.997 62.4557 127.092 61.8996 127.752 58.8747L128.066 57.4834C128.695 54.7625 129.014 53.3838 128.548 52.26C128.033 51.0005 126.823 50.6965 125.736 50.6965C125.015 50.6965 123.692 50.8687 122.517 51.4441C122.097 51.6625 121.676 51.9136 121.262 52.1657L121.622 50.7831L121.429 50.5493C118.924 51.0535 118.351 51.1208 116.039 51.4441L115.861 51.5721C115.581 53.7821 115.352 55.4427 114.356 59.7877C113.976 61.3887 113.582 63.0051 113.189 64.6023L113.294 64.8053C115.671 64.6812 116.38 64.6812 118.438 64.7148ZM135.678 64.8048C135.825 64.0909 136.701 59.8594 136.709 59.8594C136.709 59.8594 137.455 56.7546 137.501 56.642C137.501 56.642 137.736 56.3187 137.971 56.1908H138.316C141.576 56.1908 145.256 56.1908 148.141 54.0866C150.104 52.6434 151.446 50.5123 152.045 47.9222C152.2 47.2872 152.315 46.5319 152.315 45.7766C152.315 44.7847 152.114 43.8033 151.534 43.0365C150.063 40.9958 147.133 40.9582 143.751 40.9429C143.741 40.9429 142.084 40.9582 142.084 40.9582C137.755 41.0112 136.019 40.9958 135.306 40.9092C135.246 41.2219 135.132 41.778 135.132 41.778C135.132 41.778 133.582 48.9036 133.582 48.9151C133.582 48.9151 129.871 64.0649 129.696 64.7788C133.476 64.7336 135.026 64.7336 135.678 64.8048ZM138.551 52.1469C138.551 52.1469 140.2 45.0358 140.192 45.0627L140.245 44.6981L140.269 44.42L140.927 44.4874C140.927 44.4874 144.328 44.777 144.407 44.7847C145.749 45.2994 146.302 46.6262 145.916 48.358C145.564 49.9408 144.529 51.2714 143.198 51.9141C142.103 52.4587 140.761 52.5039 139.378 52.5039H138.483L138.551 52.1469ZM148.816 58.277C148.38 60.1185 147.88 63.4821 150.984 64.681C151.974 65.0985 152.861 65.2226 153.762 65.1774C154.714 65.1264 155.596 64.6531 156.413 63.9719C156.34 64.2518 156.266 64.5318 156.192 64.8128L156.333 64.9927C158.566 64.8994 159.258 64.8994 161.678 64.9177L161.897 64.7522C162.25 62.6932 162.583 60.6939 163.501 56.7549C163.948 54.8681 164.395 52.9997 164.854 51.1206L164.782 50.9138C162.284 51.3727 161.617 51.4708 159.214 51.8085L159.031 51.9558C159.007 52.1472 158.982 52.331 158.959 52.5148C158.585 51.9163 158.044 51.4054 157.208 51.0869C156.14 50.6703 153.63 51.2072 151.473 53.1546C149.957 54.5449 149.23 56.4499 148.816 58.277ZM154.062 58.3896C154.597 56.1199 155.211 54.1995 156.802 54.1995C157.809 54.1995 158.339 55.1202 158.231 56.6904C158.145 57.082 158.053 57.4948 157.944 57.9614C157.784 58.6359 157.612 59.3045 157.444 59.9742C157.273 60.4322 157.074 60.8642 156.856 61.1518C156.446 61.7272 155.472 62.0842 154.911 62.0842C154.752 62.0842 153.77 62.0842 153.736 60.6487C153.728 59.9338 153.877 59.1978 154.062 58.3896ZM181.457 50.8954L181.263 50.677C178.792 51.1734 178.345 51.2523 176.074 51.5564L175.907 51.7219C175.899 51.7488 175.892 51.7902 175.881 51.8277L175.873 51.7902C174.183 55.657 174.232 54.8228 172.856 57.867C172.848 57.7285 172.848 57.6419 172.84 57.4947L172.496 50.8954L172.28 50.677C169.691 51.1734 169.629 51.2523 167.238 51.5564L167.052 51.7219C167.026 51.8007 167.026 51.8873 167.01 51.9816L167.026 52.0153C167.325 53.5297 167.253 53.192 167.553 55.5819C167.693 56.7548 167.879 57.9344 168.019 59.0928C168.254 61.0315 168.386 61.9859 168.675 64.9445C167.06 67.5865 166.678 68.5862 165.123 70.9049L165.134 70.928L164.039 72.6445C163.914 72.8253 163.8 72.9495 163.641 73.0024C163.467 73.088 163.24 73.1034 162.924 73.1034H162.318L161.416 76.0764L164.509 76.1293C166.324 76.1216 167.466 75.2798 168.08 74.1483L170.024 70.8443H169.993L170.198 70.6115C171.506 67.8194 181.457 50.8954 181.457 50.8954ZM148.816 89.9413H147.504L152.36 74.017H153.971L154.482 72.3765L154.532 74.2007C154.471 75.3283 155.366 76.328 157.716 76.1625H160.435L161.37 73.0962H160.347C159.759 73.0962 159.486 72.949 159.52 72.6334L159.471 70.7774H154.438V70.7871C152.81 70.8207 147.95 70.942 146.967 71.2017C145.776 71.5058 144.521 72.4006 144.521 72.4006L145.014 70.7582H140.306L139.325 74.017L134.404 90.1847H133.449L132.513 93.2289H141.89L141.576 94.2439H146.197L146.504 93.2289H147.8L148.816 89.9413ZM144.968 77.2526C144.214 77.4595 142.811 78.0868 142.811 78.0868L144.059 74.017H147.8L146.898 76.9823C146.898 76.9823 145.742 77.0496 144.968 77.2526ZM145.04 83.0668C145.04 83.0668 143.865 83.2131 143.092 83.3862C142.33 83.6152 140.902 84.3368 140.902 84.3368L142.19 80.1015H145.951L145.04 83.0668ZM142.944 89.9788H139.192L140.28 86.4044H144.02L142.944 89.9788ZM151.981 80.1015H157.39L156.613 82.5973H151.132L150.309 85.3259H155.105L151.474 90.3954C151.219 90.7677 150.991 90.8996 150.738 91.0044C150.484 91.1324 150.15 91.2825 149.764 91.2825H148.433L147.519 94.2709H150.999C152.808 94.2709 153.876 93.455 154.665 92.3841L157.155 89.0051L157.69 92.4361C157.803 93.0788 158.269 93.455 158.585 93.6012C158.933 93.7744 159.293 94.0717 159.801 94.116C160.347 94.1391 160.741 94.1573 161.003 94.1573H162.713L163.739 90.813H163.065C162.678 90.813 162.011 90.7485 161.897 90.6282C161.784 90.482 161.784 90.2568 161.723 89.9143L161.18 86.4757H158.959L159.933 85.3259H165.403L166.245 82.5973H161.18L161.969 80.1015H167.018L167.955 77.0236H152.902L151.981 80.1015ZM106.297 90.6737L107.559 86.5096H112.748L113.696 83.4125H108.503L109.296 80.8494H114.371L115.311 77.8504H102.612L101.692 80.8494H104.577L103.807 83.4125H100.914L99.9555 86.5625H102.84L101.157 92.0717C100.93 92.801 101.264 93.0791 101.475 93.4178C101.692 93.7478 101.911 93.9662 102.404 94.0903C102.912 94.2029 103.261 94.2702 103.734 94.2702H109.584L110.626 90.8392L108.033 91.1923C107.532 91.1923 106.146 91.1327 106.297 90.6737ZM106.892 70.7394L105.577 73.0957C105.296 73.6105 105.043 73.9299 104.815 74.0771C104.614 74.2012 104.216 74.2532 103.639 74.2532H102.953L102.036 77.2675H104.315C105.41 77.2675 106.252 76.8692 106.653 76.67C107.085 76.4411 107.199 76.5719 107.533 76.2525L108.302 75.5915H115.417L116.361 72.453H111.153L112.062 70.7394H106.892ZM117.396 90.7343C117.275 90.5611 117.362 90.2561 117.547 89.6211L119.492 83.2392H126.41C127.418 83.2248 128.146 83.2132 128.62 83.1796C129.128 83.1266 129.681 82.9467 130.284 82.6235C130.906 82.2848 131.224 81.9278 131.493 81.518C131.793 81.1091 132.274 80.2143 132.687 78.8346L135.132 70.7584L127.953 70.7998C127.953 70.7998 125.742 71.123 124.769 71.48C123.787 71.8783 122.384 72.9905 122.384 72.9905L123.032 70.7767H118.597L112.389 91.1922C112.169 91.985 112.021 92.5604 111.987 92.9058C111.975 93.2781 112.461 93.6466 112.775 93.9247C113.147 94.2028 113.696 94.1575 114.223 94.2028C114.777 94.2441 115.565 94.2701 116.653 94.2701H120.061L121.107 90.7679L118.056 91.0537C117.73 91.0537 117.494 90.8805 117.396 90.7343ZM120.747 78.9289H128.013L127.551 80.3644C127.486 80.398 127.331 80.2932 126.591 80.3798H120.299L120.747 78.9289ZM122.202 74.1143H129.53L129.003 75.8433C129.003 75.8433 125.549 75.8096 124.996 75.9106C122.562 76.3282 121.141 77.6175 121.141 77.6175L122.202 74.1143ZM127.714 85.1715C127.654 85.386 127.558 85.5169 127.426 85.615C127.278 85.7093 127.039 85.743 126.683 85.743H125.648L125.709 83.9948H121.402L121.228 92.5414C121.221 93.1582 121.281 93.5151 121.736 93.8009C122.191 94.1578 123.593 94.203 125.481 94.203H128.18L129.154 91.0039L126.804 91.1319L126.023 91.1771C125.917 91.1319 125.815 91.0905 125.701 90.978C125.602 90.8808 125.435 90.9404 125.462 90.3237L125.481 88.1329L127.945 88.0319C129.275 88.0319 129.844 87.6028 130.329 87.1939C130.792 86.8023 130.943 86.352 131.118 85.743L131.531 83.8033H128.146L127.714 85.1715Z" fill="#FEFEFE"/>
</svg>
