<svg width="246" height="152" viewBox="0 0 246 152" fill="none" xmlns="http://www.w3.org/2000/svg">
<g filter="url(#filter0_d)">
<path d="M9.36499 21.1218C9.36499 12.2805 16.5322 5.11328 25.3735 5.11328H220.144C228.985 5.11328 236.152 12.2805 236.152 21.1218V122.509C236.152 131.35 228.985 138.518 220.144 138.518H25.3735C16.5322 138.518 9.36499 131.35 9.36499 122.509V21.1218Z" fill="white"/>
</g>
<g filter="url(#filter1_d)">
<path fill-rule="evenodd" clip-rule="evenodd" d="M220.144 6.44732H25.3735C17.269 6.44732 10.699 13.0173 10.699 21.1218V122.509C10.699 130.613 17.269 137.183 25.3735 137.183H220.144C228.248 137.183 234.818 130.613 234.818 122.509V21.1218C234.818 13.0173 228.248 6.44732 220.144 6.44732ZM25.3735 5.11328C16.5322 5.11328 9.36499 12.2805 9.36499 21.1218V122.509C9.36499 131.35 16.5322 138.518 25.3735 138.518H220.144C228.985 138.518 236.152 131.35 236.152 122.509V21.1218C236.152 12.2805 228.985 5.11328 220.144 5.11328H25.3735Z" fill="#EDEAEE"/>
</g>
<path d="M114.569 89.8448H104.878L110.939 55.1016H120.63L114.569 89.8448Z" fill="#00579F"/>
<path d="M149.701 55.9528C147.789 55.2498 144.757 54.4736 141.008 54.4736C131.438 54.4736 124.698 59.2044 124.657 65.9679C124.577 70.958 129.482 73.7297 133.15 75.3935C136.9 77.0938 138.174 78.2035 138.174 79.719C138.136 82.0466 135.145 83.1194 132.354 83.1194C128.485 83.1194 126.412 82.5663 123.261 81.2714L121.985 80.7163L120.629 88.5153C122.902 89.4753 127.09 90.3271 131.438 90.3644C141.606 90.3644 148.227 85.7069 148.305 78.4992C148.344 74.5442 145.754 71.5136 140.17 69.0373C136.781 67.4476 134.705 66.3757 134.705 64.7491C134.745 63.2705 136.461 61.7559 140.287 61.7559C143.437 61.6818 145.752 62.3838 147.506 63.0862L148.383 63.4552L149.701 55.9528Z" fill="#00579F"/>
<path d="M162.582 77.5365C163.38 75.5406 166.451 67.8156 166.451 67.8156C166.411 67.8898 167.248 65.7828 167.726 64.4894L168.404 67.4831C168.404 67.4831 170.239 75.7994 170.637 77.5365C169.123 77.5365 164.496 77.5365 162.582 77.5365ZM174.545 55.1016H167.048C164.737 55.1016 162.981 55.7294 161.983 57.9842L147.588 89.8443H157.757C157.757 89.8443 159.431 85.5562 159.791 84.6326C160.906 84.6326 170.798 84.6326 172.234 84.6326C172.512 85.8524 173.39 89.8443 173.39 89.8443H182.363L174.545 55.1016Z" fill="#00579F"/>
<path d="M96.7823 55.1016L87.2913 78.7931L86.2542 73.9882C84.4995 68.4439 78.9964 62.4202 72.8552 59.4251L81.5487 89.8079H91.797L107.03 55.1016H96.7823Z" fill="#00579F"/>
<path d="M78.478 55.1016H62.8856L62.7261 55.8036C74.8892 58.6867 82.9445 65.6364 86.2541 73.9897L82.8645 58.022C82.3064 55.8031 80.5915 55.1748 78.478 55.1016Z" fill="#FAA61A"/>
<defs>
<filter id="filter0_d" x="0.36499" y="0.113281" width="244.787" height="151.404" filterUnits="userSpaceOnUse" color-interpolation-filters="sRGB">
<feFlood flood-opacity="0" result="BackgroundImageFix"/>
<feColorMatrix in="SourceAlpha" type="matrix" values="0 0 0 0 0 0 0 0 0 0 0 0 0 0 0 0 0 0 127 0"/>
<feOffset dy="4"/>
<feGaussianBlur stdDeviation="4.5"/>
<feColorMatrix type="matrix" values="0 0 0 0 0 0 0 0 0 0 0 0 0 0 0 0 0 0 0.04 0"/>
<feBlend mode="normal" in2="BackgroundImageFix" result="effect1_dropShadow"/>
<feBlend mode="normal" in="SourceGraphic" in2="effect1_dropShadow" result="shape"/>
</filter>
<filter id="filter1_d" x="0.36499" y="0.113281" width="244.787" height="151.404" filterUnits="userSpaceOnUse" color-interpolation-filters="sRGB">
<feFlood flood-opacity="0" result="BackgroundImageFix"/>
<feColorMatrix in="SourceAlpha" type="matrix" values="0 0 0 0 0 0 0 0 0 0 0 0 0 0 0 0 0 0 127 0"/>
<feOffset dy="4"/>
<feGaussianBlur stdDeviation="4.5"/>
<feColorMatrix type="matrix" values="0 0 0 0 0 0 0 0 0 0 0 0 0 0 0 0 0 0 0.04 0"/>
<feBlend mode="normal" in2="BackgroundImageFix" result="effect1_dropShadow"/>
<feBlend mode="normal" in="SourceGraphic" in2="effect1_dropShadow" result="shape"/>
</filter>
</defs>
</svg>
